<?xml version="1.0" standalone="no"?>
<!DOCTYPE svg PUBLIC "-//W3C//DTD SVG 20010904//EN"
 "http://www.w3.org/TR/2001/REC-SVG-20010904/DTD/svg10.dtd">
<svg version="1.0" xmlns="http://www.w3.org/2000/svg"
 width="128.000000pt" height="128.000000pt" viewBox="0 0 128.000000 128.000000"
 preserveAspectRatio="xMidYMid meet">
<metadata>
Created by potrace 1.14, written by Peter Selinger 2001-2017
</metadata>
<g transform="translate(0.000000,128.000000) scale(0.100000,-0.100000)"
fill="#000000" stroke="none">
<path d="M185 1263 c-22 -3 -44 -8 -50 -13 -5 -4 -19 -4 -30 1 -49 19 -71 0
-53 -48 4 -14 4 -23 -2 -23 -6 0 -9 -3 -8 -7 1 -5 -2 -19 -6 -33 -4 -14 -3
-37 2 -50 5 -14 6 -35 1 -47 -5 -13 -4 -25 2 -28 5 -4 7 -11 4 -16 -9 -13 45
-60 59 -52 12 8 18 10 65 18 19 4 45 11 58 16 63 24 104 0 61 -35 -33 -27 -38
-47 -18 -66 9 -8 10 -11 2 -6 -10 8 -13 5 -10 -9 1 -10 -4 -20 -12 -22 -13 -4
-13 -3 0 7 12 9 12 11 1 8 -16 -5 -24 -35 -10 -44 5 -3 9 0 9 5 0 6 5 11 11
11 8 0 8 -5 -1 -15 -7 -8 -15 -13 -19 -11 -3 2 -13 -3 -21 -12 -13 -14 -12
-15 2 -9 15 5 16 2 2 -36 -8 -22 -12 -47 -9 -55 2 -7 1 -10 -4 -7 -5 3 -12 1
-16 -5 -3 -5 0 -10 7 -11 7 0 4 -4 -7 -9 -11 -5 -14 -9 -7 -9 7 -1 11 -5 7
-10 -3 -5 -1 -12 4 -16 6 -3 8 -12 5 -20 -4 -8 -10 -12 -15 -9 -5 3 -6 10 -3
16 4 7 2 8 -5 4 -8 -5 -7 -13 3 -28 8 -11 12 -27 9 -36 -4 -10 -2 -13 5 -8 7
4 12 1 12 -9 0 -9 -4 -14 -8 -11 -5 3 -9 -1 -9 -9 0 -8 4 -12 9 -9 4 3 8 2 9
-3 0 -4 2 -16 4 -26 2 -13 -1 -17 -11 -13 -9 3 -12 1 -9 -4 3 -6 13 -10 21
-10 8 0 14 -9 14 -20 0 -12 5 -26 10 -33 30 -35 56 -84 52 -97 -3 -8 -1 -12 3
-8 13 12 34 -12 28 -30 -4 -13 -3 -14 5 -3 8 11 12 10 21 -8 7 -11 18 -21 26
-21 18 0 20 -16 3 -24 -7 -3 -1 -3 13 0 16 3 30 1 34 -7 5 -8 4 -10 -3 -5 -7
4 -19 3 -28 -2 -15 -8 -15 -10 0 -15 10 -4 15 -3 12 2 -3 5 6 9 19 9 23 0 31
-13 26 -42 -1 -5 4 -4 12 2 8 7 18 8 22 4 5 -4 5 -2 2 4 -3 6 1 11 9 11 8 0
13 -6 10 -13 -5 -13 32 -13 54 1 8 5 11 4 6 -3 -3 -6 3 -16 15 -22 17 -10 20
-9 14 1 -6 9 -3 11 9 6 10 -4 20 -7 23 -7 3 0 -1 -8 -8 -17 -13 -17 -12 -17 4
-3 26 20 58 24 51 6 -3 -8 -1 -17 4 -20 5 -3 9 2 8 12 -1 14 7 17 45 17 33 0
45 4 42 13 -3 6 0 12 6 12 10 0 15 -14 12 -33 0 -4 4 -7 10 -7 6 0 8 8 5 18
-4 13 0 18 14 19 13 1 18 -2 14 -10 -4 -7 -3 -8 2 -4 5 5 10 13 10 18 3 22 5
23 14 9 8 -13 10 -12 10 3 0 10 4 16 8 13 5 -3 16 4 25 15 10 11 22 17 27 14
6 -3 10 -2 10 4 0 6 8 7 18 4 15 -6 15 -5 3 10 -12 15 -12 17 4 11 14 -6 16
-4 10 7 -8 12 -6 12 8 0 16 -12 17 -12 11 5 -5 18 -5 18 10 0 19 -23 21 -14 4
17 -10 20 -9 21 5 9 13 -11 15 -10 10 8 -6 22 14 25 29 5 4 -5 6 5 4 23 -4 38
14 52 42 31 15 -13 16 -12 4 3 -10 13 -10 17 0 22 7 3 4 4 -6 3 -10 -1 -21 3
-23 10 -3 7 4 10 19 6 18 -4 20 -3 8 6 -14 10 -7 16 14 12 5 -1 3 6 -5 15 -12
16 -12 17 3 12 19 -8 33 18 16 28 -7 5 -8 2 -3 -6 5 -9 4 -11 -4 -6 -16 10 -3
29 16 22 8 -3 11 -1 8 5 -4 5 -1 18 7 27 12 15 11 16 -4 4 -15 -12 -17 -11
-15 7 1 12 7 19 13 17 7 -3 18 3 26 12 12 16 11 16 -6 2 -18 -14 -19 -13 -13
3 4 10 3 16 -2 12 -5 -3 -12 -1 -15 4 -4 5 -1 13 5 17 8 4 9 3 5 -4 -5 -8 -1
-10 10 -5 14 5 13 8 -7 19 -13 7 -18 13 -11 14 6 0 12 9 12 21 0 12 -4 17 -11
13 -8 -4 -7 0 1 15 6 12 15 19 19 17 4 -3 8 1 8 8 0 7 -6 13 -13 13 -7 0 -11
-4 -8 -9 3 -4 1 -8 -5 -8 -17 0 -19 25 -2 44 15 17 15 18 -3 15 -10 -2 -21 2
-24 10 -3 9 2 11 19 7 23 -6 24 -6 2 5 -12 6 -24 22 -28 36 -3 13 -10 21 -15
18 -6 -4 -7 1 -3 11 5 13 3 15 -7 9 -8 -5 -11 -4 -7 2 4 6 0 16 -8 23 -8 7
-12 16 -10 21 3 4 -3 13 -12 19 -16 10 -16 11 -1 6 10 -3 20 -1 23 5 4 5 3 9
-2 8 -25 -4 -42 3 -48 21 -3 11 -11 19 -17 17 -18 -4 -18 37 -1 51 21 15 9 16
-16 0 -11 -6 -26 -8 -37 -3 -11 5 -23 7 -27 6 -5 -1 -6 3 -2 9 3 5 1 11 -4 11
-6 1 -15 3 -21 4 -5 1 -14 3 -20 4 -5 0 -10 6 -10 12 0 8 5 8 15 -1 10 -9 15
-9 15 -1 0 6 -3 11 -7 12 -5 0 -18 2 -30 3 -19 2 -21 0 -10 -13 11 -14 10 -14
-6 -2 -10 8 -16 20 -13 27 3 8 0 11 -9 8 -8 -3 -13 -11 -11 -17 1 -7 1 -9 -1
-4 -3 4 -9 4 -15 1 -6 -4 -8 2 -3 17 5 19 4 21 -4 9 -6 -8 -11 -10 -11 -4 0 6
-12 10 -27 9 -16 -1 -32 3 -36 9 -5 6 -5 1 -2 -11 4 -14 2 -23 -5 -23 -6 0 -8
5 -5 10 3 6 1 10 -5 10 -6 0 -8 5 -4 12 5 7 3 8 -5 4 -7 -5 -10 -13 -8 -20 3
-6 -6 -12 -19 -12 -20 -2 -21 0 -9 13 21 20 19 25 -5 11 -11 -7 -20 -16 -20
-20 0 -4 -9 -5 -20 -3 -11 2 -20 -2 -20 -8 0 -8 -4 -7 -9 2 -8 13 -12 13 -27
0 -10 -8 -15 -9 -12 -4 5 9 -4 22 -24 36 -3 2 -16 -8 -28 -24 -20 -25 -49 -29
-34 -5 4 7 2 8 -5 4 -6 -4 -19 -2 -27 5 -9 7 -34 13 -57 13 -25 1 -42 6 -45
15 -3 10 0 12 11 8 10 -4 17 2 21 19 4 14 10 22 15 19 12 -7 18 13 16 53 -2
25 1 32 12 28 8 -3 11 -1 8 4 -8 13 -37 8 -69 -13 -14 -10 -26 -14 -26 -10 0
5 -4 2 -9 -6 -7 -11 -11 -8 -16 10 -6 19 -45 64 -49 57 -1 -1 -19 -3 -41 -5z
m582 -197 c2 -2 0 -7 -6 -11 -6 -3 -11 -1 -11 5 0 6 -4 9 -9 5 -5 -3 -12 -1
-16 4 -5 9 33 7 42 -3z"/>
<path d="M874 1232 c4 -7 1 -12 -9 -12 -11 0 -7 -9 15 -30 17 -16 36 -30 43
-30 7 0 6 4 -3 10 -9 6 -10 10 -3 10 6 0 18 -9 26 -21 21 -29 78 -69 91 -63 6
3 1 -2 -10 -11 -14 -10 -20 -23 -17 -35 9 -33 53 -37 53 -5 0 11 10 8 38 -10
20 -14 44 -31 53 -40 9 -8 21 -15 27 -15 6 0 16 -8 21 -17 6 -10 11 -14 11 -9
0 5 7 3 15 -4 13 -11 14 -10 9 4 -5 13 -2 15 12 9 29 -11 -95 100 -126 113
-15 7 -30 19 -33 28 -4 9 -14 16 -24 16 -10 0 -27 13 -38 29 -20 31 -53 51
-84 51 -10 0 -31 10 -47 22 -15 13 -25 17 -20 10z"/>
<path d="M593 1085 c0 -8 4 -12 9 -9 4 3 8 9 8 15 0 5 -4 9 -8 9 -5 0 -9 -7
-9 -15z"/>
<path d="M948 1003 c7 -3 16 -2 19 1 4 3 -2 6 -13 5 -11 0 -14 -3 -6 -6z"/>
<path d="M996 962 c-2 -4 4 -8 14 -8 10 0 16 4 14 8 -3 4 -9 8 -14 8 -5 0 -11
-4 -14 -8z"/>
<path d="M58 943 c7 -3 16 -2 19 1 4 3 -2 6 -13 5 -11 0 -14 -3 -6 -6z"/>
<path d="M1026 928 c3 -5 10 -6 15 -3 13 9 11 12 -6 12 -8 0 -12 -4 -9 -9z"/>
<path d="M1075 892 c-6 -4 -11 -12 -10 -17 0 -17 42 -65 56 -65 7 0 3 7 -10
16 -18 13 -20 19 -10 26 11 8 10 9 -3 5 -22 -8 -29 2 -17 24 11 21 9 23 -6 11z"/>
<path d="M1116 787 c3 -10 9 -15 12 -12 3 3 0 11 -7 18 -10 9 -11 8 -5 -6z"/>
<path d="M202 750 c-9 -15 -9 -21 1 -26 6 -4 9 -4 5 1 -4 4 -3 14 4 22 6 7 9
15 7 18 -3 2 -10 -4 -17 -15z"/>
<path d="M1144 704 c-18 -14 -18 -15 4 -4 12 6 22 13 22 15 0 8 -5 6 -26 -11z"/>
<path d="M1155 640 c3 -5 8 -10 11 -10 2 0 4 5 4 10 0 6 -5 10 -11 10 -5 0 -7
-4 -4 -10z"/>
<path d="M240 370 c6 -11 13 -20 16 -20 2 0 0 9 -6 20 -6 11 -13 20 -16 20 -2
0 0 -9 6 -20z"/>
<path d="M80 349 c0 -7 -7 -20 -15 -29 -36 -39 -26 -89 27 -139 32 -30 56 -42
43 -21 -4 7 9 9 37 7 24 -2 53 -1 65 4 14 5 34 1 60 -12 22 -11 39 -15 41 -9
2 6 7 8 12 5 4 -3 10 2 14 10 3 8 0 17 -6 21 -7 4 -8 3 -4 -4 4 -7 1 -12 -8
-12 -9 0 -17 6 -17 13 -2 17 -1 20 6 40 9 22 -11 19 -39 -5 -25 -22 -24 -22
-91 3 -34 13 -55 26 -55 36 0 9 -8 21 -17 28 -10 7 -18 26 -18 41 -2 28 -35
50 -35 23z"/>
<path d="M1076 327 c3 -10 9 -15 12 -12 3 3 0 11 -7 18 -10 9 -11 8 -5 -6z"/>
</g>
</svg>
