<?xml version="1.0" standalone="no"?>
<!DOCTYPE svg PUBLIC "-//W3C//DTD SVG 20010904//EN"
 "http://www.w3.org/TR/2001/REC-SVG-20010904/DTD/svg10.dtd">
<svg version="1.0" xmlns="http://www.w3.org/2000/svg"
 width="128.000000pt" height="128.000000pt" viewBox="0 0 128.000000 128.000000"
 preserveAspectRatio="xMidYMid meet">
<metadata>
Created by potrace 1.14, written by Peter Selinger 2001-2017
</metadata>
<g transform="translate(0.000000,128.000000) scale(0.100000,-0.100000)"
fill="#000000" stroke="none">
<path d="M425 1230 c-61 -20 -150 -69 -127 -70 7 0 20 -16 29 -35 17 -36 33
-38 33 -4 0 16 5 19 20 14 12 -4 20 -2 20 6 0 18 157 7 198 -15 42 -22 113
-86 107 -96 -6 -9 86 -50 114 -50 31 0 80 46 74 70 -3 11 0 20 6 20 12 0 15
29 5 54 -3 9 -10 16 -15 16 -4 0 -27 13 -51 28 -85 56 -145 75 -253 79 -80 2
-112 -1 -160 -17z"/>
<path d="M300 1119 c0 -39 20 -58 70 -64 l45 -5 -40 13 c-29 9 -44 22 -57 47
-16 33 -17 33 -18 9z"/>
<path d="M268 979 c-10 -5 -18 -17 -18 -24 0 -23 16 -17 28 10 6 14 11 25 9
25 -1 0 -10 -5 -19 -11z"/>
<path d="M663 883 c9 -2 25 -2 35 0 9 3 1 5 -18 5 -19 0 -27 -2 -17 -5z"/>
<path d="M247 815 c-48 -33 -57 -68 -26 -101 28 -30 12 -32 -25 -3 -21 17 -24
24 -15 35 14 17 -13 64 -37 64 -18 0 -30 -29 -18 -45 5 -7 22 -31 37 -54 16
-25 43 -49 62 -57 19 -8 53 -38 76 -67 23 -28 55 -61 71 -71 30 -19 30 -20 24
-88 -6 -66 -5 -68 13 -58 35 18 113 -6 159 -50 13 -12 29 -19 36 -17 8 3 18
-5 24 -18 10 -22 8 -24 -20 -30 -44 -10 -143 3 -219 28 -70 24 -81 18 -45 -22
36 -40 122 -64 239 -67 l107 -3 48 -40 c26 -23 53 -39 60 -36 7 3 23 0 35 -6
12 -6 7 1 -12 18 -42 36 -40 69 4 66 l28 -2 -38 39 c-29 30 -47 40 -70 40 -23
0 -41 10 -67 38 -50 52 -70 96 -76 169 -5 60 -3 65 32 110 36 47 45 73 25 73
-7 0 -9 9 -6 23 12 43 -31 -23 -54 -85 -19 -52 -25 -58 -50 -58 -53 0 -74 62
-43 122 l17 32 -33 -28 c-28 -23 -39 -27 -69 -21 -51 10 -83 28 -124 74 -33
36 -36 44 -26 68 5 15 15 33 21 40 17 21 -5 15 -45 -12z"/>
<path d="M780 823 c0 -4 5 -15 10 -23 8 -13 10 -13 10 2 0 9 -4 20 -10 23 -5
3 -10 3 -10 -2z"/>
<path d="M730 805 c0 -10 -10 -15 -32 -15 -24 0 -29 -3 -19 -9 12 -8 13 -12 2
-25 -11 -12 -17 -14 -27 -5 -17 14 -18 0 -1 -22 11 -15 15 -14 41 12 16 16 33
29 38 29 5 0 6 5 3 10 -3 6 -2 10 3 10 5 0 9 7 9 15 0 8 -4 15 -9 15 -4 0 -8
-7 -8 -15z"/>
<path d="M94 745 c5 -11 16 -47 26 -80 34 -113 46 -138 96 -196 27 -31 50 -56
52 -55 7 8 -19 56 -52 95 -34 40 -36 47 -30 91 6 46 5 48 -47 106 -29 32 -49
50 -45 39z"/>
<path d="M855 731 c-25 -6 -19 -8 35 -13 36 -3 84 -15 106 -26 51 -26 116 -96
149 -162 34 -68 44 -57 12 13 -59 128 -195 213 -302 188z"/>
<path d="M890 530 c0 -5 7 -10 15 -10 8 0 15 5 15 10 0 6 -7 10 -15 10 -8 0
-15 -4 -15 -10z"/>
<path d="M938 523 c-6 -7 -17 -13 -24 -13 -8 0 -17 -12 -20 -27 -4 -15 -19
-37 -33 -50 l-26 -23 43 2 c25 1 41 6 38 12 -2 6 -8 10 -13 9 -16 -3 0 60 16
65 8 3 11 0 7 -7 -5 -7 1 -11 14 -11 19 0 21 -4 16 -25 -14 -54 -27 -80 -35
-66 -9 13 -21 -40 -21 -91 0 -20 -4 -26 -15 -22 -8 4 -15 12 -15 20 0 8 -5 13
-12 11 -6 -1 -17 9 -24 21 -7 14 -14 19 -18 13 -21 -33 158 -141 186 -113 8 8
5 11 -8 11 -26 -1 -66 9 -74 18 -4 5 4 32 17 61 l25 54 22 -31 c28 -41 37 -39
23 4 -6 19 -17 35 -25 35 -12 0 -12 3 -1 16 8 10 15 12 17 5 2 -6 13 -11 25
-11 l22 1 -21 17 c-12 10 -25 29 -28 43 -6 18 -5 20 3 9 9 -13 13 -12 33 8
l22 22 -32 0 c-27 0 -32 4 -32 23 0 26 -33 32 -52 10z"/>
<path d="M850 501 c0 -5 7 -14 15 -21 13 -10 15 -9 15 9 0 12 -6 21 -15 21 -8
0 -15 -4 -15 -9z"/>
<path d="M1060 481 c0 -5 5 -13 10 -16 6 -3 10 -2 10 4 0 5 -4 13 -10 16 -5 3
-10 2 -10 -4z"/>
<path d="M750 465 c0 -8 4 -15 10 -15 5 0 7 7 4 15 -4 8 -8 15 -10 15 -2 0 -4
-7 -4 -15z"/>
<path d="M760 429 c-25 -9 -25 -9 3 -5 29 3 37 -11 12 -20 -24 -10 -17 -24 13
-24 26 -1 26 -1 8 -15 -29 -22 -12 -30 19 -9 31 20 28 40 -6 36 -23 -2 -23 -2
-5 12 18 15 14 37 -7 35 -7 -1 -23 -5 -37 -10z"/>
<path d="M1117 407 c-3 -8 -1 -20 4 -28 6 -10 9 -7 9 14 0 29 -5 35 -13 14z"/>
<path d="M1173 343 c-7 -3 -13 -11 -13 -19 0 -21 -28 -74 -54 -103 -20 -23
-20 -23 -1 -13 53 27 115 151 68 135z"/>
<path d="M1014 286 c-8 -21 3 -36 27 -36 11 0 19 -7 19 -16 0 -10 -6 -14 -15
-10 -8 3 -15 1 -15 -5 0 -20 35 -3 38 18 3 17 -3 24 -23 29 -17 4 -23 9 -15
14 9 5 9 9 1 14 -6 4 -14 0 -17 -8z"/>
<path d="M794 95 c-10 -24 6 -34 68 -45 70 -11 149 0 208 28 25 12 36 19 25
16 -67 -22 -211 -17 -277 11 -12 5 -20 2 -24 -10z"/>
</g>
</svg>
